# xmcd
#
# Track frame offsets:
#	182
#	15477
#	31915
#	50425
#	64695
#	75442
#	90885
#	102720
#	122132
#	134952
#	147185
#
# Disc length: 2130 seconds
# Revision: 4
# Processed by: cddbd v1.5.2PL0 Copyright (c) Steve Scherf et al.
# Submitted via: dBpowerAMP V12.0
#
DISCID=8f08500b
DTITLE=Waylon Jennings - Ol' Waylon [DCC]
DYEAR=1977
DGENRE=Country
TTITLE0=Luckenbach, Texas (Back to the Basics of Love)
TTITLE1=If You See Me Getting Smaller
TTITLE2=Lucille
TTITLE3=Sweet Caroline
TTITLE4=I Think I'm Gonna Kill Myself
TTITLE5=Belle of the Ball
TTITLE6=Elvis Medley: That's All Right/My Baby Left Me
TTITLE7=Till I Gain Control Again
TTITLE8=Brand New Goodbye Song
TTITLE9=Satin Sheets
TTITLE10=This Is Getting Funny (But There Ain't Nobody Laughing)
EXTD=
EXTT0=
EXTT1=
EXTT2=
EXTT3=
EXTT4=
EXTT5=
EXTT6=
EXTT7=
EXTT8=
EXTT9=
EXTT10=
PLAYORDER=
